<svg id="Icon-linkedin" xmlns="http://www.w3.org/2000/svg" width="37.68" height="37.68" viewBox="0 0 37.68 37.68">
  <path id="Path_13" data-name="Path 13" d="M6.883,1.5A5.383,5.383,0,0,0,1.5,6.883V33.8A5.383,5.383,0,0,0,6.883,39.18H33.8A5.383,5.383,0,0,0,39.18,33.8V6.883A5.383,5.383,0,0,0,33.8,1.5ZM9.849,13.065a3.216,3.216,0,1,0-2.274-.942,3.216,3.216,0,0,0,2.274.942ZM12.54,33.294V15.587H7.157V33.294Zm3.574-17.707H21.5v2.371a6.534,6.534,0,0,1,5.781-2.918c3.87,0,5.972,2.565,5.972,7.444,0,.234.022,1.3.022,1.3v9.5H27.889v-9.5c0-1.305-.275-3.87-3.176-3.87s-3.149,3.224-3.216,5.334v8.037H16.114v-17.7Z" transform="translate(-1.5 -1.5)" fill="#034c87" fill-rule="evenodd"/>
</svg>
