<svg id="Icon-instagram" xmlns="http://www.w3.org/2000/svg" width="37.68" height="37.68" viewBox="0 0 37.68 37.68">
  <path id="Path_10" data-name="Path 10" d="M8,12a4,4,0,1,1,4,4A4,4,0,0,1,8,12Z" transform="translate(6.84 6.84)" fill="#034c87"/>
  <path id="Path_11" data-name="Path 11" d="M7.851,1A6.851,6.851,0,0,0,1,7.851V31.829A6.851,6.851,0,0,0,7.851,38.68H31.829a6.851,6.851,0,0,0,6.851-6.851V7.851A6.851,6.851,0,0,0,31.829,1ZM30.116,7.851a1.713,1.713,0,1,0,1.713,1.713A1.713,1.713,0,0,0,30.116,7.851ZM19.84,9.564A10.276,10.276,0,1,0,30.116,19.84,10.276,10.276,0,0,0,19.84,9.564Z" transform="translate(-1 -1)" fill="#034c87" fill-rule="evenodd"/>
</svg>
