<svg id="Icon-facebook" xmlns="http://www.w3.org/2000/svg" width="37.678" height="37.678" viewBox="0 0 37.678 37.678">
  <path id="Path_4" data-name="Path 4" d="M7.85,1A6.85,6.85,0,0,0,1,7.85V31.827a6.851,6.851,0,0,0,6.85,6.85h12.5V24.213H16.414V19h3.935V14.556c0-3.5,2.325-6.705,7.68-6.705a33.4,33.4,0,0,1,3.772.2l-.126,4.863s-1.635-.015-3.42-.015c-1.931,0-2.241.865-2.241,2.3V19h5.814l-.253,5.208H26.013V38.678h5.814a6.851,6.851,0,0,0,6.85-6.85V7.85A6.851,6.851,0,0,0,31.827,1Z" transform="translate(-1 -1)" fill="#034c87"/>
</svg>
