<svg id="Icon-youtube" xmlns="http://www.w3.org/2000/svg" width="53" height="35.333" viewBox="0 0 53 35.333">
  <path id="Path_14" data-name="Path 14" d="M51.89,9.544a6.149,6.149,0,0,0-1.691-2.8A6.735,6.735,0,0,0,47.244,5.1C43.1,4.011,26.485,4.011,26.485,4.011A169.272,169.272,0,0,0,5.751,5.048,6.978,6.978,0,0,0,2.8,6.725,6.392,6.392,0,0,0,1.079,9.542,64.171,64.171,0,0,0,0,21.667,64.054,64.054,0,0,0,1.079,33.792a6.238,6.238,0,0,0,1.711,2.8,6.835,6.835,0,0,0,2.961,1.64c4.2,1.09,20.733,1.09,20.733,1.09a169.646,169.646,0,0,0,20.76-1.037A6.734,6.734,0,0,0,50.2,36.648a6.137,6.137,0,0,0,1.689-2.8,62.61,62.61,0,0,0,1.106-12.127,58.643,58.643,0,0,0-1.1-12.176ZM21.2,29.223V14.112l13.822,7.557Z" transform="translate(0 -4)" fill="#034c87"/>
</svg>
