<svg id="Icon-twitter" xmlns="http://www.w3.org/2000/svg" width="37.68" height="37.68" viewBox="0 0 37.68 37.68">
  <path id="Path_12" data-name="Path 12" d="M11.85,40.249c14.217,0,22-14.5,22-27.068,0-.411,0-.821-.024-1.229A18.2,18.2,0,0,0,37.68,7.026a13.367,13.367,0,0,1-4.439,1.5,9.459,9.459,0,0,0,3.4-5.266,13.873,13.873,0,0,1-4.91,2.308A7.423,7.423,0,0,0,27.344,2.7a6.5,6.5,0,0,0-4.9,1,9.014,9.014,0,0,0-3.4,4.465,11.552,11.552,0,0,0-.49,6.084,18.833,18.833,0,0,1-8.824-2.886A23.523,23.523,0,0,1,2.623,4.3a11.447,11.447,0,0,0-.848,6.935,9.765,9.765,0,0,0,3.24,5.766,6.617,6.617,0,0,1-3.509-1.193v.12a10.924,10.924,0,0,0,1.75,6.024,7.636,7.636,0,0,0,4.451,3.3,6.321,6.321,0,0,1-3.49.165A9.728,9.728,0,0,0,6.968,30.15a6.857,6.857,0,0,0,4.475,1.879A13.485,13.485,0,0,1,0,35.976,19.023,19.023,0,0,0,11.85,40.24" transform="translate(0 -2.569)" fill="#034c87"/>
</svg>
